<?xml version="1.0" encoding="UTF-8" standalone="no"?>
<svg
   xmlns:dc="http://purl.org/dc/elements/1.1/"
   xmlns:cc="http://creativecommons.org/ns#"
   xmlns:rdf="http://www.w3.org/1999/02/22-rdf-syntax-ns#"
   xmlns:svg="http://www.w3.org/2000/svg"
   xmlns="http://www.w3.org/2000/svg"
   xmlns:sodipodi="http://sodipodi.sourceforge.net/DTD/sodipodi-0.dtd"
   xmlns:inkscape="http://www.inkscape.org/namespaces/inkscape"
   width="563.66406pt"
   height="563.66406pt"
   viewBox="0 0 563.66405 563.66405"
   version="1.2"
   id="svg2"
   inkscape:version="0.91 r13725"
   sodipodi:docname="insideout-pb.svg">
  <metadata
     id="metadata42">
    <rdf:RDF>
      <cc:Work
         rdf:about="">
        <dc:format>image/svg+xml</dc:format>
        <dc:type
           rdf:resource="http://purl.org/dc/dcmitype/StillImage" />
        <dc:title></dc:title>
      </cc:Work>
    </rdf:RDF>
  </metadata>
  <sodipodi:namedview
     pagecolor="#ffffff"
     bordercolor="#666666"
     borderopacity="1"
     objecttolerance="10"
     gridtolerance="10"
     guidetolerance="10"
     inkscape:pageopacity="0"
     inkscape:pageshadow="2"
     inkscape:window-width="640"
     inkscape:window-height="480"
     id="namedview40"
     showgrid="false"
     fit-margin-top="0"
     fit-margin-left="0"
     fit-margin-right="0"
     fit-margin-bottom="0"
     inkscape:zoom="0.23838384"
     inkscape:cx="352.29004"
     inkscape:cy="343.90021"
     inkscape:window-x="0"
     inkscape:window-y="27"
     inkscape:window-maximized="0"
     inkscape:current-layer="svg2" />
  <defs
     id="defs4">
    <clipPath
       id="clip1">
      <path
         d="m 24.167969,114.16797 563.664061,0 0,563.66406 -563.664061,0 z m 0,0"
         id="path7"
         inkscape:connector-curvature="0" />
    </clipPath>
  </defs>
  <g
     id="surface38570"
     transform="translate(-24.167969,-114.16797)">
    <g
       clip-path="url(#clip1)"
       id="g10"
       style="clip-rule:nonzero">
      <path
         style="fill:#2b2e33;fill-opacity:1;fill-rule:nonzero;stroke:none"
         d="m 24.167969,677.83203 563.664061,0 0,-563.66406 -563.664061,0 z m 0,0"
         id="path12"
         inkscape:connector-curvature="0" />
    </g>
    <path
       style="fill:#ffffff;fill-opacity:1;fill-rule:nonzero;stroke:none"
       d="m 204.21094,381.49219 9.14843,0 0,34.77734 -9.14843,0 z m -0.86328,-9.21875 c 0,-3.02344 2.44921,-5.39844 5.40234,-5.39844 3.02344,0 5.47266,2.375 5.47266,5.39844 0,3.02343 -2.44922,5.47265 -5.47266,5.47265 -2.95313,0 -5.40234,-2.44922 -5.40234,-5.47265"
       id="path14"
       inkscape:connector-curvature="0" />
    <path
       style="fill:#ffffff;fill-opacity:1;fill-rule:nonzero;stroke:none"
       d="m 245.90234,416.26953 0,-21.02734 c 0,-4.82422 -2.51953,-6.48047 -6.41015,-6.48047 -3.59766,0 -6.33594,2.01562 -7.91797,4.03515 l 0,23.47266 -9.14844,0 0,-34.78125 9.14844,0 0,4.46875 c 2.23047,-2.59375 6.55078,-5.33203 12.16797,-5.33203 7.70312,0 11.375,4.32031 11.375,11.08984 l 0,24.55469 z m 0,0"
       id="path16"
       inkscape:connector-curvature="0" />
    <path
       style="fill:#ffffff;fill-opacity:1;fill-rule:nonzero;stroke:none"
       d="m 261.08984,411.73437 3.96094,-6.625 c 2.59375,2.44532 7.70703,4.82422 12.02734,4.82422 3.96094,0 5.83204,-1.51562 5.83204,-3.67187 0,-5.69141 -20.59375,-1.00781 -20.59375,-14.69141 0,-5.83203 5.03906,-10.94531 14.2539,-10.94531 5.83594,0 10.51563,2.01953 13.97266,4.75391 l -3.67188,6.48046 c -2.08984,-2.16015 -6.05078,-4.03125 -10.30078,-4.03125 -3.30859,0 -5.46875,1.44141 -5.46875,3.38282 0,5.11328 20.66406,0.79297 20.66406,14.83203 0,6.41015 -5.47265,11.08984 -15.12109,11.08984 -6.04687,0 -11.88281,-2.01562 -15.55469,-5.39844"
       id="path18"
       inkscape:connector-curvature="0" />
    <path
       style="fill:#ffffff;fill-opacity:1;fill-rule:nonzero;stroke:none"
       d="m 298.45703,381.49219 9.14453,0 0,34.77734 -9.14453,0 z m -0.86328,-9.21875 c 0,-3.02344 2.44922,-5.39844 5.40234,-5.39844 3.02344,0 5.47266,2.375 5.47266,5.39844 0,3.02343 -2.44922,5.47265 -5.47266,5.47265 -2.95312,0 -5.40234,-2.44922 -5.40234,-5.47265"
       id="path20"
       inkscape:connector-curvature="0" />
    <path
       style="fill:#ffffff;fill-opacity:1;fill-rule:nonzero;stroke:none"
       d="m 340.58203,405.03516 0,-12.3125 c -1.51562,-2.30469 -4.82422,-3.96094 -7.85156,-3.96094 -5.25391,0 -8.85547,4.10547 -8.85547,10.08203 0,6.04687 3.60156,10.15234 8.85547,10.15234 3.02734,0 6.33594,-1.65625 7.85156,-3.96093 m 0,11.23437 0,-4.46484 c -2.73828,3.45703 -6.48047,5.32812 -10.73047,5.32812 -8.71094,0 -15.41015,-6.625 -15.41015,-18.28906 0,-11.30469 6.55468,-18.21875 15.41015,-18.21875 4.10547,0 7.99219,1.73047 10.73047,5.32812 l 0,-17.71093 9.21484,0 0,48.02734 z m 0,0"
       id="path22"
       inkscape:connector-curvature="0" />
    <path
       style="fill:#ffffff;fill-opacity:1;fill-rule:nonzero;stroke:none"
       d="m 374.63672,388.11328 c -5.69141,0 -8.13672,3.96094 -8.4961,7.41797 l 17.13672,0 c -0.28906,-3.3125 -2.59375,-7.41797 -8.64062,-7.41797 m -18.00391,10.73047 c 0,-10.08203 7.48828,-18.21875 18.00391,-18.21875 10.4375,0 17.42578,7.77734 17.42578,19.08203 l 0,2.16016 -25.85156,0 c 0.64843,4.24609 4.10547,7.77734 10.00781,7.77734 2.95312,0 6.98437,-1.22266 9.21875,-3.38281 l 4.10156,6.04687 c -3.45312,3.16797 -8.92578,4.82422 -14.32812,4.82422 -10.58594,0 -18.57813,-7.1289 -18.57813,-18.28906"
       id="path24"
       inkscape:connector-curvature="0" />
    <path
       style="fill:#ffffff;fill-opacity:1;fill-rule:nonzero;stroke:none"
       d="m 414.8125,389.51172 c -5.57031,0 -8.10547,4.83594 -8.10547,9.33203 0,4.67969 2.50391,9.40234 8.10547,9.40234 5.64844,0 8.17578,-4.72265 8.17578,-9.40234 0,-4.64453 -2.52734,-9.33203 -8.17578,-9.33203 m 0,20.23437 c -5.65625,0 -9.60547,-4.48437 -9.60547,-10.90234 0,-6.37891 3.94922,-10.83203 9.60547,-10.83203 5.69531,0 9.67578,4.45312 9.67578,10.83203 0,6.41797 -3.98047,10.90234 -9.67578,10.90234 m 0,-28.37109 c -10.37109,0 -17.61328,7.18359 -17.61328,17.46875 0,11.51562 8.85937,17.53906 17.61328,17.53906 10.41016,0 17.68359,-7.21094 17.68359,-17.53906 0,-10.28516 -7.27343,-17.46875 -17.68359,-17.46875 m 0,36.50781 c -11.07422,0 -19.11328,-8.00781 -19.11328,-19.03906 0,-10.99219 8.03906,-18.96875 19.11328,-18.96875 11.11328,0 19.18359,7.97656 19.18359,18.96875 0,11.03125 -8.07031,19.03906 -19.18359,19.03906"
       id="path26"
       inkscape:connector-curvature="0" />
    <path
       style="fill:#ffffff;fill-opacity:1;fill-rule:nonzero;stroke:none"
       d="m 440.83203,382.23828 0,23.94922 c 0,6.67187 3.625,10.19531 10.48438,10.19531 6.39843,0 10.30468,-3.5039 11.6875,-5.01172 0.20703,-0.23047 0.53515,-0.30468 0.82421,-0.19531 0.28907,0.11328 0.47657,0.39063 0.47657,0.70313 l 0,3.64062 7.64453,0 0,-33.28125 -7.64453,0 0,22.79688 c 0,0.16796 -0.0547,0.33203 -0.16016,0.46484 -2.08984,2.66016 -5.26953,4.24609 -8.50781,4.24609 -4.75,0 -7.16016,-2.40625 -7.16016,-7.15625 l 0,-20.35156 z m 10.48438,35.64453 c -7.73047,0 -11.98438,-4.15234 -11.98438,-11.69531 l 0,-24.69922 c 0,-0.41406 0.33594,-0.75 0.75,-0.75 l 9.14453,0 c 0.41406,0 0.75,0.33594 0.75,0.75 l 0,21.10156 c 0,3.96485 1.69141,5.65625 5.66016,5.65625 3.84765,0 6.30859,-2.44922 7.16797,-3.47656 l 0,-23.28125 c 0,-0.41406 0.33593,-0.75 0.75,-0.75 l 9.14453,0 c 0.41406,0 0.75,0.33594 0.75,0.75 l 0,34.78125 c 0,0.41406 -0.33594,0.75 -0.75,0.75 l -9.14453,0 c -0.41407,0 -0.75,-0.33594 -0.75,-0.75 l 0,-2.625 c -2.10938,1.82422 -5.94532,4.23828 -11.48828,4.23828"
       id="path28"
       inkscape:connector-curvature="0" />
    <path
       style="fill:#ffffff;fill-opacity:1;fill-rule:nonzero;stroke:none"
       d="m 478.63281,388.73437 5.00781,0 c 0.41407,0 0.75,0.33594 0.75,0.75 l 0,18.07032 c 0,5.85937 3.04297,8.82812 9.04297,8.82812 3.72266,0 5.76563,-0.99609 6.78125,-1.7539 l -1.53125,-5.48829 c -0.76172,0.375 -1.75,0.60547 -2.73047,0.60547 -2.34375,0 -3.91796,-1.86328 -3.91796,-4.63672 l 0,-15.625 c 0,-0.41406 0.33593,-0.75 0.75,-0.75 l 6.30859,0 0,-6.49609 -6.30859,0 c -0.41407,0 -0.75,-0.33594 -0.75,-0.75 l 0,-8.75391 -7.64454,0 0,8.75391 c 0,0.41406 -0.33593,0.75 -0.75,0.75 l -5.00781,0 z m 14.80078,29.14844 c -6.79687,0 -10.54297,-3.66797 -10.54297,-10.32812 l 0,-17.32032 -5.00781,0 c -0.41406,0 -0.75,-0.33593 -0.75,-0.75 l 0,-7.99609 c 0,-0.41016 0.33594,-0.75 0.75,-0.75 l 5.00781,0 0,-8.75391 c 0,-0.41406 0.33594,-0.75 0.75,-0.75 l 9.14454,0 c 0.41406,0 0.75,0.33594 0.75,0.75 l 0,8.75391 6.30859,0 c 0.41406,0 0.75,0.33984 0.75,0.75 l 0,7.99609 c 0,0.41407 -0.33594,0.75 -0.75,0.75 l -6.30859,0 0,14.875 c 0,1.51563 0.63671,3.13672 2.41796,3.13672 1.28516,0 2.3125,-0.49218 2.60547,-0.82422 0.1836,-0.20703 0.46875,-0.29687 0.73047,-0.23828 0.26953,0.0625 0.48047,0.26563 0.55469,0.53125 l 1.94531,6.98438 c 0.0781,0.27734 -0.008,0.57031 -0.22265,0.76172 -1.23438,1.10547 -3.64844,2.42187 -8.13282,2.42187"
       id="path30"
       inkscape:connector-curvature="0" />
    <path
       style="fill:#ffffff;fill-opacity:1;fill-rule:nonzero;stroke:none"
       d="m 181.53125,389.48047 -27.05859,-27.05469 c -1.79688,-1.79687 -4.16016,-2.69922 -6.51954,-2.69922 -2.36328,0 -4.72656,0.89844 -6.52343,2.69922 -3.59766,3.59375 -3.59766,9.44531 0,13.04297 l 19.92578,19.92578 -1.00391,1.11719 -19.98437,-19.98438 c -4.17969,-4.17968 -4.17969,-10.98437 0,-15.16406 4.18359,-4.17969 10.98437,-4.17969 15.16797,0 l 27.05468,27.05859 c 0.30469,0.30079 0.60547,0.73829 0.76953,1.34766 z m 0,0"
       id="path32"
       inkscape:connector-curvature="0" />
    <path
       style="fill:#ffffff;fill-opacity:1;fill-rule:nonzero;stroke:none"
       d="m 154.47266,429.58203 27.05859,-27.05859 c 1.73437,-1.73438 2.6875,-4.04688 2.6875,-6.51953 0,-2.47266 -0.95313,-4.78907 -2.6875,-6.52344 -1.73438,-1.73438 -4.05078,-2.6875 -6.52344,-2.6875 -2.47265,0 -4.78515,0.95312 -6.51953,2.6875 l -20.08594,20.08594 -0.96875,-1.15235 19.99219,-19.99219 c 2.01563,-2.01953 4.71094,-3.1289 7.58203,-3.1289 2.8711,0 5.56641,1.10937 7.58203,3.1289 2.01953,2.01563 3.12891,4.71094 3.12891,7.58204 0,2.87109 -1.10938,5.5625 -3.12891,7.58203 l -27.05468,27.05859 c -0.46875,0.46484 -1.19532,0.88672 -2.30079,0.88672 z m 0,0"
       id="path34"
       inkscape:connector-curvature="0" />
    <path
       style="fill:#ffffff;fill-opacity:1;fill-rule:nonzero;stroke:none"
       d="m 135.54297,395.48437 19.99219,19.99219 c 2.01562,2.01953 3.1289,4.71094 3.1289,7.58203 0,2.875 -1.11328,5.56641 -3.1289,7.58203 -2.01954,2.01954 -4.71094,3.12891 -7.58594,3.12891 -2.8711,0 -5.5625,-1.10937 -7.58203,-3.12891 L 113.3125,403.58594 c -0.48047,-0.48047 -0.91016,-1.23047 -0.89062,-2.38282 l 1.94921,1.32032 27.0586,27.05859 c 3.59765,3.59766 9.44922,3.59375 13.04297,0 1.73437,-1.73437 2.6914,-4.05078 2.6914,-6.52344 0,-2.46875 -0.95703,-4.78515 -2.6914,-6.51953 l -20.02735,-20.02734 z m 0,0"
       id="path36"
       inkscape:connector-curvature="0" />
    <path
       style="fill:#ffffff;fill-opacity:1;fill-rule:nonzero;stroke:none"
       d="m 113.84375,388.95312 0.008,0 z m 34.61719,-5.35156 -19.98438,19.98438 c -2.08984,2.08984 -4.83593,3.13672 -7.58203,3.13672 -2.74609,0 -5.49219,-1.04688 -7.58203,-3.13672 -2.01953,-2.01563 -3.12891,-4.71094 -3.12891,-7.58203 0,-2.8711 1.10938,-5.56641 3.12891,-7.58204 l 27.05469,-27.05859 c 0.39843,-0.39844 0.98437,-0.76172 1.83593,-0.86328 l -0.77343,1.92578 -27.0586,27.05469 c -1.73437,1.73437 -2.6875,4.05078 -2.6875,6.52344 0,2.46875 0.95313,4.78515 2.6875,6.52343 3.59766,3.59375 9.44922,3.59375 13.04688,0 l 20.01562,-20.01953 z m 0,0"
       id="path38"
       inkscape:connector-curvature="0" />
  </g>
</svg>
