<?xml version="1.0" encoding="UTF-8" standalone="no"?>
<svg
   xmlns:dc="http://purl.org/dc/elements/1.1/"
   xmlns:cc="http://creativecommons.org/ns#"
   xmlns:rdf="http://www.w3.org/1999/02/22-rdf-syntax-ns#"
   xmlns:svg="http://www.w3.org/2000/svg"
   xmlns="http://www.w3.org/2000/svg"
   xmlns:sodipodi="http://sodipodi.sourceforge.net/DTD/sodipodi-0.dtd"
   xmlns:inkscape="http://www.inkscape.org/namespaces/inkscape"
   width="563.66406pt"
   height="563.66406pt"
   viewBox="0 0 563.66405 563.66405"
   version="1.2"
   id="svg2"
   inkscape:version="0.91 r13725"
   sodipodi:docname="insideout-pb-transparente.svg">
  <metadata
     id="metadata35">
    <rdf:RDF>
      <cc:Work
         rdf:about="">
        <dc:format>image/svg+xml</dc:format>
        <dc:type
           rdf:resource="http://purl.org/dc/dcmitype/StillImage" />
        <dc:title></dc:title>
      </cc:Work>
    </rdf:RDF>
  </metadata>
  <defs
     id="defs33" />
  <sodipodi:namedview
     pagecolor="#ffffff"
     bordercolor="#666666"
     borderopacity="1"
     objecttolerance="10"
     gridtolerance="10"
     guidetolerance="10"
     inkscape:pageopacity="0"
     inkscape:pageshadow="2"
     inkscape:window-width="677"
     inkscape:window-height="480"
     id="namedview31"
     showgrid="false"
     inkscape:zoom="0.23838384"
     inkscape:cx="382.5"
     inkscape:cy="495"
     inkscape:window-x="0"
     inkscape:window-y="27"
     inkscape:window-maximized="0"
     inkscape:current-layer="svg2" />
  <g
     id="surface31545"
     transform="translate(-24.168474,-114.16308)">
    <path
       style="fill:#2b2e33;fill-opacity:1;fill-rule:nonzero;stroke:none"
       d="m 204.21094,381.48828 9.14843,0 0,34.77734 -9.14843,0 z m -0.86328,-9.21875 c 0,-3.02344 2.44921,-5.39844 5.40234,-5.39844 3.02344,0 5.47266,2.375 5.47266,5.39844 0,3.02344 -2.44922,5.47266 -5.47266,5.47266 -2.95313,0 -5.40234,-2.44922 -5.40234,-5.47266"
       id="path5"
       inkscape:connector-curvature="0" />
    <path
       style="fill:#2b2e33;fill-opacity:1;fill-rule:nonzero;stroke:none"
       d="m 245.90234,416.26562 0,-21.02343 c 0,-4.82813 -2.51953,-6.48438 -6.41015,-6.48438 -3.59766,0 -6.33594,2.01953 -7.91797,4.03516 l 0,23.47265 -9.14844,0 0,-34.77734 9.14844,0 0,4.46484 c 2.23047,-2.59375 6.55078,-5.33203 12.16797,-5.33203 7.70312,0 11.375,4.32422 11.375,11.08985 l 0,24.55468 z m 0,0"
       id="path7"
       inkscape:connector-curvature="0" />
    <path
       style="fill:#2b2e33;fill-opacity:1;fill-rule:nonzero;stroke:none"
       d="m 261.08984,411.73047 3.96094,-6.625 c 2.59375,2.44531 7.70703,4.82422 12.02344,4.82422 3.96094,0 5.83594,-1.51172 5.83594,-3.67188 0,-5.6875 -20.59375,-1.00781 -20.59375,-14.6914 0,-5.83204 5.03906,-10.94532 14.2539,-10.94532 5.83594,0 10.51563,2.01953 13.97266,4.75391 l -3.67578,6.48047 c -2.08594,-2.16016 -6.04688,-4.03125 -10.29688,-4.03125 -3.30859,0 -5.46875,1.4414 -5.46875,3.38281 0,5.11328 20.66406,0.79297 20.66406,14.83594 0,6.40625 -5.47265,11.08594 -15.12109,11.08594 -6.04687,0 -11.88281,-2.01563 -15.55469,-5.39844"
       id="path9"
       inkscape:connector-curvature="0" />
    <path
       style="fill:#2b2e33;fill-opacity:1;fill-rule:nonzero;stroke:none"
       d="m 298.45703,381.48828 9.14453,0 0,34.77734 -9.14453,0 z m -0.86328,-9.21875 c 0,-3.02344 2.44922,-5.39844 5.40234,-5.39844 3.02344,0 5.47266,2.375 5.47266,5.39844 0,3.02344 -2.44922,5.47266 -5.47266,5.47266 -2.95312,0 -5.40234,-2.44922 -5.40234,-5.47266"
       id="path11"
       inkscape:connector-curvature="0" />
    <path
       style="fill:#2b2e33;fill-opacity:1;fill-rule:nonzero;stroke:none"
       d="m 340.58203,405.03125 0,-12.3125 c -1.51562,-2.30469 -4.82422,-3.96094 -7.85156,-3.96094 -5.25391,0 -8.85547,4.10547 -8.85547,10.08203 0,6.04688 3.60156,10.15235 8.85547,10.15235 3.02734,0 6.33594,-1.65625 7.85156,-3.96094 m 0,11.23437 0,-4.46484 c -2.73828,3.45703 -6.48047,5.32813 -10.73047,5.32813 -8.71094,0 -15.41015,-6.625 -15.41015,-18.28907 0,-11.30468 6.55468,-18.21875 15.41015,-18.21875 4.10547,0 7.99219,1.73047 10.73047,5.33203 l 0,-17.71484 9.21484,0 0,48.02734 z m 0,0"
       id="path13"
       inkscape:connector-curvature="0" />
    <path
       style="fill:#2b2e33;fill-opacity:1;fill-rule:nonzero;stroke:none"
       d="m 374.63672,388.11328 c -5.69141,0 -8.13672,3.95703 -8.4961,7.41406 l 17.13672,0 c -0.28906,-3.3125 -2.59375,-7.41406 -8.64062,-7.41406 m -18.00391,10.72656 c 0,-10.08203 7.48828,-18.21875 18.00391,-18.21875 10.4375,0 17.42578,7.77735 17.42578,19.08203 l 0,2.16016 -25.85156,0 c 0.64843,4.25 4.10547,7.77734 10.00781,7.77734 2.95312,0 6.98437,-1.22265 9.21875,-3.38281 l 4.10156,6.04688 c -3.45312,3.16797 -8.92578,4.82422 -14.32812,4.82422 -10.58594,0 -18.57813,-7.12891 -18.57813,-18.28907"
       id="path15"
       inkscape:connector-curvature="0" />
    <path
       style="fill:#2b2e33;fill-opacity:1;fill-rule:nonzero;stroke:none"
       d="m 414.8125,389.50781 c -5.57031,0 -8.10547,4.83985 -8.10547,9.33203 0,4.67969 2.50391,9.40235 8.10547,9.40235 5.64844,0 8.17578,-4.72266 8.17578,-9.40235 0,-4.64453 -2.52734,-9.33203 -8.17578,-9.33203 m 0,20.23438 c -5.65625,0 -9.60547,-4.48047 -9.60547,-10.90235 0,-6.375 3.94922,-10.83203 9.60547,-10.83203 5.69531,0 9.67578,4.45703 9.67578,10.83203 0,6.42188 -3.98047,10.90235 -9.67578,10.90235 m 0,-28.3711 c -10.37109,0 -17.61328,7.1836 -17.61328,17.46875 0,11.51563 8.85937,17.53907 17.61328,17.53907 10.41016,0 17.68359,-7.21094 17.68359,-17.53907 0,-10.28515 -7.27343,-17.46875 -17.68359,-17.46875 m 0,36.50782 c -11.07422,0 -19.11328,-8.00782 -19.11328,-19.03907 0,-10.99218 8.03906,-18.96875 19.11328,-18.96875 11.11328,0 19.18359,7.97657 19.18359,18.96875 0,11.03125 -8.07031,19.03907 -19.18359,19.03907"
       id="path17"
       inkscape:connector-curvature="0" />
    <path
       style="fill:#2b2e33;fill-opacity:1;fill-rule:nonzero;stroke:none"
       d="m 440.83203,382.23828 0,23.94531 c 0,6.67188 3.625,10.19532 10.48438,10.19532 6.39843,0 10.30468,-3.50391 11.6875,-5.01172 0.20703,-0.23047 0.53515,-0.30469 0.82421,-0.19532 0.28907,0.11329 0.47657,0.39063 0.47657,0.70313 l 0,3.64062 7.64453,0 0,-33.27734 -7.64453,0 0,22.79297 c 0,0.16797 -0.0547,0.33203 -0.16016,0.46484 -2.08984,2.66016 -5.26953,4.2461 -8.50781,4.2461 -4.75,0 -7.16016,-2.40625 -7.16016,-7.15625 l 0,-20.34766 z m 10.48438,35.64063 c -7.73047,0 -11.98438,-4.15235 -11.98438,-11.69532 l 0,-24.69531 c 0,-0.41406 0.33594,-0.75 0.75,-0.75 l 9.14453,0 c 0.41406,0 0.75,0.33594 0.75,0.75 l 0,21.09766 c 0,3.96484 1.69141,5.65625 5.66016,5.65625 3.84765,0 6.30859,-2.44922 7.16797,-3.47657 l 0,-23.27734 c 0,-0.41406 0.33593,-0.75 0.75,-0.75 l 9.14453,0 c 0.41406,0 0.75,0.33594 0.75,0.75 l 0,34.77734 c 0,0.41407 -0.33594,0.75 -0.75,0.75 l -9.14453,0 c -0.41407,0 -0.75,-0.33593 -0.75,-0.75 l 0,-2.625 c -2.10938,1.82422 -5.94532,4.23829 -11.48828,4.23829"
       id="path19"
       inkscape:connector-curvature="0" />
    <path
       style="fill:#2b2e33;fill-opacity:1;fill-rule:nonzero;stroke:none"
       d="m 478.63281,388.73047 5.00781,0 c 0.41407,0 0.75,0.33594 0.75,0.75 l 0,18.07031 c 0,5.85938 3.04297,8.82813 9.04297,8.82813 3.72266,0 5.76563,-0.9961 6.78125,-1.75391 l -1.53125,-5.48828 c -0.76172,0.375 -1.75,0.60547 -2.73047,0.60547 -2.34375,0 -3.91796,-1.86328 -3.91796,-4.63672 l 0,-15.625 c 0,-0.41406 0.33593,-0.75 0.75,-0.75 l 6.30859,0 0,-6.49219 -6.30859,0 c -0.41407,0 -0.75,-0.33594 -0.75,-0.75 l 0,-8.75781 -7.64454,0 0,8.75781 c 0,0.41406 -0.33593,0.75 -0.75,0.75 l -5.00781,0 z m 14.80078,29.14844 c -6.79687,0 -10.54297,-3.66797 -10.54297,-10.32813 l 0,-17.32031 -5.00781,0 c -0.41406,0 -0.75,-0.33594 -0.75,-0.75 l 0,-7.99219 c 0,-0.41406 0.33594,-0.75 0.75,-0.75 l 5.00781,0 0,-8.75781 c 0,-0.41406 0.33594,-0.75 0.75,-0.75 l 9.14454,0 c 0.41406,0 0.75,0.33594 0.75,0.75 l 0,8.75781 6.30859,0 c 0.41406,0 0.75,0.33594 0.75,0.75 l 0,7.99219 c 0,0.41406 -0.33594,0.75 -0.75,0.75 l -6.30859,0 0,14.875 c 0,1.51562 0.63671,3.13672 2.41796,3.13672 1.28516,0 2.3125,-0.49219 2.60547,-0.82422 0.1836,-0.20703 0.46875,-0.29688 0.73047,-0.23438 0.26953,0.0586 0.48047,0.26172 0.55469,0.52735 l 1.94531,6.98437 c 0.0781,0.27735 -0.008,0.57031 -0.22265,0.76172 -1.23438,1.10547 -3.64844,2.42188 -8.13282,2.42188"
       id="path21"
       inkscape:connector-curvature="0" />
    <path
       style="fill:#2b2e33;fill-opacity:1;fill-rule:nonzero;stroke:none"
       d="m 181.53125,389.47656 -27.05859,-27.05469 c -1.79688,-1.79687 -4.16016,-2.69921 -6.51954,-2.69921 -2.36328,0 -4.72656,0.90234 -6.52343,2.69921 -3.59766,3.59375 -3.59766,9.44922 0,13.04297 l 19.92578,19.92578 -1.00391,1.11719 -19.98437,-19.98437 c -4.17969,-4.17969 -4.17969,-10.98047 0,-15.16407 4.18359,-4.17968 10.98437,-4.17968 15.16797,0 l 27.05468,27.0586 c 0.30469,0.30078 0.60547,0.73828 0.76953,1.34765 z m 0,0"
       id="path23"
       inkscape:connector-curvature="0" />
    <path
       style="fill:#2b2e33;fill-opacity:1;fill-rule:nonzero;stroke:none"
       d="m 154.47266,429.57812 27.05859,-27.05859 c 1.73437,-1.73047 2.6875,-4.04687 2.6875,-6.51953 0,-2.47266 -0.95313,-4.78906 -2.6875,-6.52344 -1.73438,-1.73047 -4.05078,-2.6875 -6.52344,-2.6875 -2.47265,0 -4.78515,0.95703 -6.51953,2.6875 l -20.08594,20.08594 -0.96875,-1.15234 19.99219,-19.99219 c 2.01563,-2.01563 4.71094,-3.12891 7.58203,-3.12891 2.8711,0 5.56641,1.11328 7.58203,3.12891 2.01953,2.01562 3.12891,4.71094 3.12891,7.58203 0,2.87109 -1.10938,5.5625 -3.12891,7.58203 l -27.05468,27.05859 c -0.46875,0.46485 -1.19532,0.88672 -2.30079,0.88672 z m 0,0"
       id="path25"
       inkscape:connector-curvature="0" />
    <path
       style="fill:#2b2e33;fill-opacity:1;fill-rule:nonzero;stroke:none"
       d="m 135.54297,395.48437 19.99219,19.98829 c 2.01562,2.01953 3.1289,4.71093 3.1289,7.58203 0,2.875 -1.11328,5.5664 -3.1289,7.58203 -2.01954,2.01953 -4.71094,3.1289 -7.58594,3.1289 -2.8711,0 -5.5625,-1.10937 -7.58203,-3.1289 L 113.3125,403.58203 c -0.48047,-0.48047 -0.91016,-1.23047 -0.89062,-2.37891 l 1.94921,1.32032 27.0586,27.05468 c 3.59765,3.59766 9.44922,3.59375 13.04297,0 1.73437,-1.73437 2.6914,-4.05078 2.6914,-6.52343 0,-2.46875 -0.95703,-4.78516 -2.6914,-6.51953 l -20.02735,-20.02735 z m 0,0"
       id="path27"
       inkscape:connector-curvature="0" />
    <path
       style="fill:#2b2e33;fill-opacity:1;fill-rule:nonzero;stroke:none"
       d="m 113.84375,388.94922 0.008,0 z m 34.61719,-5.35156 -19.98438,19.98437 c -2.08984,2.08984 -4.83593,3.13672 -7.58203,3.13672 -2.74609,0 -5.49219,-1.04688 -7.58203,-3.13672 -2.01953,-2.01562 -3.12891,-4.71094 -3.12891,-7.58203 0,-2.87109 1.10938,-5.56641 3.12891,-7.58203 l 27.05469,-27.0586 c 0.39843,-0.39453 0.98437,-0.76171 1.83593,-0.86328 l -0.77343,1.92578 -27.0586,27.05469 c -1.73437,1.73828 -2.6875,4.05078 -2.6875,6.52344 0,2.47266 0.95313,4.78516 2.6875,6.52344 3.59766,3.59375 9.44922,3.59375 13.04688,0 l 20.01562,-20.01953 z m 0,0"
       id="path29"
       inkscape:connector-curvature="0" />
  </g>
</svg>
