<?xml version="1.0" encoding="utf-8"?>
<!-- Generator: Adobe Illustrator 15.0.2, SVG Export Plug-In . SVG Version: 6.00 Build 0)  -->
<!DOCTYPE svg PUBLIC "-//W3C//DTD SVG 1.1//EN" "http://www.w3.org/Graphics/SVG/1.1/DTD/svg11.dtd">
<svg version="1.1"
	 id="svg2" sodipodi:docname="New document 1" inkscape:version="0.48.4 r9939" xmlns:dc="http://purl.org/dc/elements/1.1/" xmlns:cc="http://creativecommons.org/ns#" xmlns:rdf="http://www.w3.org/1999/02/22-rdf-syntax-ns#" xmlns:svg="http://www.w3.org/2000/svg" xmlns:sodipodi="http://sodipodi.sourceforge.net/DTD/sodipodi-0.dtd" xmlns:inkscape="http://www.inkscape.org/namespaces/inkscape"
	 xmlns="http://www.w3.org/2000/svg" xmlns:xlink="http://www.w3.org/1999/xlink" x="0px" y="0px" width="563.666px"
	 height="563.666px" viewBox="0 0 563.666 563.666" enable-background="new 0 0 563.666 563.666" xml:space="preserve">
<sodipodi:namedview  id="base" inkscape:window-y="24" inkscape:window-x="55" inkscape:window-height="744" inkscape:window-width="1311" fit-margin-bottom="0" fit-margin-right="0" inkscape:guide-bbox="true" inkscape:current-layer="layer1" inkscape:document-units="px" inkscape:pageshadow="2" inkscape:pageopacity="0.0" fit-margin-left="0" fit-margin-top="0" showguides="true" showgrid="false" inkscape:cy="266.50601" inkscape:cx="229.29537" inkscape:zoom="0.98994949" borderopacity="1.0" bordercolor="#666666" pagecolor="#ffffff" inkscape:window-maximized="1">
	</sodipodi:namedview>
<path id="path5536" sodipodi:ry="86.873116" sodipodi:rx="86.873116" sodipodi:cy="464.4534" sodipodi:cx="347.49246" sodipodi:type="arc" fill="none" stroke="#919191" d="
	M373.727,281.833c0,50.752-41.143,91.895-91.895,91.895s-91.896-41.143-91.896-91.895l0,0
	c-0.021-50.752,41.104-91.912,91.856-91.934c50.753-0.021,91.913,41.104,91.934,91.856
	C373.727,281.781,373.727,281.806,373.727,281.833L373.727,281.833z"/>
<g id="g6359" transform="translate(-8.1894531e-6,-3.2152998)">
	<text transform="matrix(1 0 0 1 227.3567 270.216)" fill="#919191" font-family="'Brussels'" font-size="40">Inside</text>
	<text transform="matrix(1 0 0 1 245.9617 330.3205)" fill="#919191" font-family="'Brussels'" font-size="40">Out</text>
</g>
<path id="path5538" sodipodi:nodetypes="ccssszcczc" inkscape:transform-center-y="10.784535" inkscape:transform-center-x="-144.41743" inkscape:connector-curvature="0" fill="#2BA573" d="
	M508.612,230.82v79.297c0,0-42.932-6.061-71.216,4.041c-28.284,10.101-40.227,55.078-71.216,68.185
	c-10.131,4.285-24.82-8.414-21.92-16.237c6.049-16.316,36.403-38.081,36.063-79.222c-0.342-41.141-17.678-62.63-17.678-62.63
	c17.699,2.247,22.21-10.015,26.769-22.223c0,0,29.391,27.821,57.074,31.314C474.171,236.839,508.612,230.82,508.612,230.82
	L508.612,230.82z"/>
<path id="path5566" sodipodi:nodetypes="ccssszcczc" inkscape:transform-center-y="-144.41743" inkscape:transform-center-x="-10.784531" inkscape:connector-curvature="0" fill="#F1C454" d="
	M230.82,55.053h79.297c0,0-6.061,42.932,4.041,71.216s55.079,40.227,68.185,71.216c4.285,10.13-8.414,24.819-16.236,21.92
	c-16.316-6.049-38.082-36.403-79.223-36.063c-41.141,0.342-62.63,17.678-62.63,17.678c2.247-17.7-10.015-22.211-22.224-26.769
	c0,0,27.822-29.391,31.315-57.074S230.82,55.053,230.82,55.053z"/>
<path id="path5568" sodipodi:nodetypes="ccssszcczc" inkscape:transform-center-y="-10.784531" inkscape:transform-center-x="144.41743" inkscape:connector-curvature="0" fill="#B829FF" d="
	M55.053,332.845v-79.297c0,0,42.932,6.061,71.216-4.041s40.227-55.079,71.216-68.186c10.13-4.284,24.819,8.415,21.92,16.237
	c-6.049,16.316-36.403,38.082-36.063,79.223c0.342,41.141,17.678,62.629,17.678,62.629c-17.7-2.246-22.211,10.015-26.769,22.224
	c0,0-29.391-27.821-57.074-31.314S55.053,332.845,55.053,332.845L55.053,332.845z"/>
<path id="path5570" sodipodi:nodetypes="ccssszcczc" inkscape:transform-center-y="144.41743" inkscape:transform-center-x="10.784531" inkscape:connector-curvature="0" fill="#1D4FE5" d="
	M332.845,508.612h-79.297c0,0,6.061-42.932-4.041-71.216s-55.079-40.227-68.186-71.216c-4.284-10.131,8.415-24.82,16.237-21.92
	c16.316,6.049,38.082,36.403,79.223,36.062c41.141-0.341,62.63-17.678,62.63-17.678c-2.247,17.7,10.015,22.211,22.223,26.77
	c0,0-27.821,29.391-31.314,57.074C326.827,474.171,332.845,508.612,332.845,508.612z"/>
</svg>
