<?xml version="1.0" encoding="UTF-8" standalone="no"?>
<!-- Created with Inkscape (http://www.inkscape.org/) -->

<svg
   xmlns:dc="http://purl.org/dc/elements/1.1/"
   xmlns:cc="http://creativecommons.org/ns#"
   xmlns:rdf="http://www.w3.org/1999/02/22-rdf-syntax-ns#"
   xmlns:svg="http://www.w3.org/2000/svg"
   xmlns="http://www.w3.org/2000/svg"
   xmlns:sodipodi="http://sodipodi.sourceforge.net/DTD/sodipodi-0.dtd"
   xmlns:inkscape="http://www.inkscape.org/namespaces/inkscape"
   width="563.6651"
   height="563.6651"
   id="svg2"
   version="1.1"
   inkscape:version="0.48.4 r9939"
   sodipodi:docname="New document 1">
  <defs
     id="defs4" />
  <sodipodi:namedview
     id="base"
     pagecolor="#ffffff"
     bordercolor="#666666"
     borderopacity="1.0"
     inkscape:pageopacity="0.0"
     inkscape:pageshadow="2"
     inkscape:zoom="0.98994949"
     inkscape:cx="229.29537"
     inkscape:cy="266.50601"
     inkscape:document-units="px"
     inkscape:current-layer="layer1"
     showgrid="false"
     showguides="true"
     inkscape:guide-bbox="true"
     fit-margin-top="0"
     fit-margin-left="0"
     fit-margin-right="0"
     fit-margin-bottom="0"
     inkscape:window-width="1311"
     inkscape:window-height="744"
     inkscape:window-x="55"
     inkscape:window-y="24"
     inkscape:window-maximized="1" />
  <metadata
     id="metadata7">
    <rdf:RDF>
      <cc:Work
         rdf:about="">
        <dc:format>image/svg+xml</dc:format>
        <dc:type
           rdf:resource="http://purl.org/dc/dcmitype/StillImage" />
        <dc:title></dc:title>
      </cc:Work>
    </rdf:RDF>
  </metadata>
  <g
     inkscape:label="Layer 1"
     inkscape:groupmode="layer"
     id="layer1"
     transform="translate(-92.934036,-223.02695)">
    <rect
       style="fill:#cccccc;fill-opacity:1;stroke:none"
       id="rect6340"
       width="563.6651"
       height="563.6651"
       x="92.934036"
       y="223.02695" />
    <path
       sodipodi:type="arc"
       style="fill:none;stroke:#000000;stroke-width:1px;stroke-linecap:butt;stroke-linejoin:miter;stroke-opacity:1"
       id="path5536"
       sodipodi:cx="347.49246"
       sodipodi:cy="464.4534"
       sodipodi:rx="86.873116"
       sodipodi:ry="86.873116"
       d="m 434.36558,464.4534 a 86.873116,86.873116 0 1 1 -173.74623,0 86.873116,86.873116 0 1 1 173.74623,0 z"
       transform="matrix(1.0578068,0,0,1.0578068,7.1866966,13.557536)" />
    <g
       id="g6359"
       transform="translate(-8.1894531e-6,-3.2152998)">
      <text
         sodipodi:linespacing="125%"
         id="text5554"
         y="493.24274"
         x="320.29034"
         style="font-size:40px;font-style:normal;font-variant:normal;font-weight:normal;font-stretch:normal;line-height:125%;letter-spacing:0px;word-spacing:0px;fill:#000000;fill-opacity:1;stroke:none;font-family:Ubuntu;-inkscape-font-specification:Ubuntu"
         xml:space="preserve"><tspan
           style="font-style:normal;font-variant:normal;font-weight:normal;font-stretch:normal;font-family:Ubuntu;-inkscape-font-specification:Ubuntu"
           y="493.24274"
           x="320.29034"
           id="tspan5556"
           sodipodi:role="line">Inside</tspan></text>
      <text
         sodipodi:linespacing="125%"
         id="text5558"
         y="553.34686"
         x="338.89532"
         style="font-size:40px;font-style:normal;font-variant:normal;font-weight:normal;font-stretch:normal;line-height:125%;letter-spacing:0px;word-spacing:0px;fill:#000000;fill-opacity:1;stroke:none;font-family:Ubuntu;-inkscape-font-specification:Ubuntu"
         xml:space="preserve"><tspan
           y="553.34686"
           x="338.89532"
           id="tspan5560"
           sodipodi:role="line">Out</tspan></text>
    </g>
    <path
       style="fill:#2ba573;fill-opacity:1;stroke:#000000;stroke-width:0.5;stroke-linecap:butt;stroke-linejoin:miter;stroke-miterlimit:4;stroke-opacity:1;stroke-dasharray:none"
       d="m 601.54584,453.8468 0,79.29697 c 0,0 -42.93148,-6.06092 -71.21575,4.04062 -28.28428,10.10152 -40.22705,55.07898 -71.21576,68.18528 -10.1305,4.28458 -24.82008,-8.4147 -21.92005,-16.23725 6.04892,-16.31628 36.40358,-38.08141 36.06219,-79.22217 -0.3414,-41.14075 -17.67768,-62.62946 -17.67768,-62.62946 17.69988,2.24678 22.21063,-10.0145 26.76905,-22.22334 0,0 29.39028,27.82136 57.07362,31.31474 27.68334,3.49337 62.12438,-2.52539 62.12438,-2.52539 z"
       id="path5538"
       inkscape:connector-curvature="0"
       sodipodi:nodetypes="ccssszcczc"
       inkscape:transform-center-x="-144.41743"
       inkscape:transform-center-y="10.784535" />
    <path
       inkscape:transform-center-y="-144.41743"
       inkscape:transform-center-x="-10.784531"
       sodipodi:nodetypes="ccssszcczc"
       inkscape:connector-curvature="0"
       id="path5566"
       d="m 323.75388,278.08025 79.29697,0 c 0,0 -6.06091,42.93148 4.04062,71.21575 10.10152,28.28428 55.07898,40.22705 68.18528,71.21576 4.28458,10.1305 -8.4147,24.82008 -16.23724,21.92005 -16.31629,-6.04892 -38.08142,-36.40358 -79.22217,-36.06219 -41.14075,0.3414 -62.62946,17.67768 -62.62946,17.67768 2.24677,-17.69988 -10.01451,-22.21063 -22.22335,-26.76905 0,0 27.82136,-29.39028 31.31474,-57.07362 3.49337,-27.68334 -2.52539,-62.12438 -2.52539,-62.12438 z"
       style="fill:#f1c454;fill-opacity:1;stroke:#000000;stroke-width:0.5;stroke-linecap:butt;stroke-linejoin:miter;stroke-miterlimit:4;stroke-opacity:1;stroke-dasharray:none" />
    <path
       style="fill:#b829ff;fill-opacity:1;stroke:#000000;stroke-width:0.5;stroke-linecap:butt;stroke-linejoin:miter;stroke-miterlimit:4;stroke-opacity:1;stroke-dasharray:none"
       d="m 147.98733,555.8722 0,-79.29696 c 0,0 42.93148,6.0609 71.21575,-4.04062 28.28428,-10.10152 40.22705,-55.07898 71.21576,-68.18529 10.1305,-4.28458 24.82008,8.4147 21.92005,16.23724 -6.04892,16.31629 -36.40358,38.08142 -36.06219,79.22217 0.3414,41.14075 17.67768,62.62947 17.67768,62.62947 -17.69988,-2.24677 -22.21063,10.0145 -26.76905,22.22335 0,0 -29.39028,-27.82137 -57.07362,-31.31475 -27.68334,-3.49337 -62.12438,2.52539 -62.12438,2.52539 z"
       id="path5568"
       inkscape:connector-curvature="0"
       sodipodi:nodetypes="ccssszcczc"
       inkscape:transform-center-x="144.41743"
       inkscape:transform-center-y="-10.784531" />
    <path
       inkscape:transform-center-y="144.41743"
       inkscape:transform-center-x="10.784531"
       sodipodi:nodetypes="ccssszcczc"
       inkscape:connector-curvature="0"
       id="path5570"
       d="m 425.77929,731.63876 -79.29697,0 c 0,0 6.06091,-42.93148 -4.04062,-71.21575 -10.10152,-28.28428 -55.07898,-40.22705 -68.18528,-71.21576 -4.28458,-10.1305 8.4147,-24.82008 16.23724,-21.92005 16.31629,6.04892 38.08142,36.40358 79.22217,36.06219 41.14075,-0.3414 62.62946,-17.67768 62.62946,-17.67768 -2.24677,17.69988 10.01451,22.21063 22.22335,26.76905 0,0 -27.82136,29.39028 -31.31474,57.07362 -3.49337,27.68334 2.52539,62.12438 2.52539,62.12438 z"
       style="fill:#1d4fe5;fill-opacity:1;stroke:#000000;stroke-width:0.5;stroke-linecap:butt;stroke-linejoin:miter;stroke-miterlimit:4;stroke-opacity:1;stroke-dasharray:none" />
  </g>
</svg>
